<?xml version="1.0" encoding="utf-8"?>
<svg viewBox="15.387 15.416 65.23 65.295" style="enable-background:new 0 0 96 96;" xmlns="http://www.w3.org/2000/svg">
  <defs>
    <style type="text/css">
	.st0{fill:#2D4452;}
	.st1{fill:#233540;}
	.st2{fill:#FFD464;}
	.st3{fill:#F2C95F;}
	.st4{fill:#CC803D;}
	.st5{fill:#F5F5F5;}
	.st6{fill:#E6E6E6;}
</style>
  </defs>
  <g id="XMLID_1_">
    <circle id="XMLID_3_" class="st0" cx="48" cy="48" r="32.5"/>
    <path id="XMLID_4_" class="st1" d="M74.2,67.2c-0.1-0.4-0.3-0.7-0.4-1c-0.1-0.5-0.3-0.9-0.5-1.3c-0.1-0.5-0.3-0.9-0.5-1.3 c-0.1-0.5-0.3-1-0.6-1.4c-0.1-0.3-0.2-0.6-0.4-0.9c-0.1-0.5-0.3-0.9-0.5-1.3c-0.1-0.5-0.3-0.9-0.5-1.3c-0.1-0.5-0.3-0.9-0.5-1.3 c-0.1-0.5-0.3-0.9-0.5-1.3c-0.1-0.5-0.3-0.9-0.5-1.3c-0.1-0.5-0.3-0.9-0.5-1.3c-0.1-0.5-0.3-0.9-0.5-1.3c-0.1-0.5-0.3-1-0.6-1.4 c-0.1-0.3-0.2-0.6-0.4-0.9c-0.1-0.5-0.3-0.9-0.5-1.3c-0.1-0.5-0.3-0.9-0.5-1.3c-0.1-0.5-0.3-0.9-0.5-1.3c-0.1-0.5-0.3-0.9-0.5-1.3 c-0.1-0.5-0.3-0.9-0.5-1.3c-0.1-0.5-0.3-0.9-0.5-1.3c-0.1-0.5-0.3-0.9-0.5-1.3c-0.1-0.5-0.3-1-0.6-1.4c-0.1-0.3-0.2-0.6-0.4-0.9 c-0.1-0.5-0.3-0.9-0.5-1.3c-0.1-0.5-0.3-0.9-0.5-1.3c-0.1-0.5-0.3-0.9-0.5-1.3c-0.2-0.6-0.4-1.1-0.7-1.6c-1-2.4-3.4-4.1-6.2-4.1 c-0.1,0-0.1,0-0.2,0c-1.1-2.1-3.3-3.6-5.9-3.6c-0.2,0-0.3,0-0.5,0l0-0.2c-0.2,0-0.3-0.1-0.5-0.1h0c-2,0-3.7,1.5-4.7,3.1 c-0.5-0.3-1.1-0.1-1.7-0.6h0c-0.2,0-0.4,0.1-0.6,0.1c-0.2,0-0.4,0.1-0.7,0.1c-0.2,0-0.4,0.1-0.5,0.1c-3,0.2-5.4,2.4-6,5.3 C31.7,34,31,35.4,31,37c0,0.3,0,0.6,0.1,0.9c0.1,0.8,0.3,1.5,0.7,2.1c0,0.1,0.1,0.2,0.1,0.3c0.1,0.3,0.2,0.5,0.3,0.8 c0.1,0.2,0.1,0.4,0.2,0.6c0.1,0.3,0.2,0.5,0.3,0.7c0.1,0.2,0.1,0.4,0.2,0.6c0.1,0.3,0.2,0.5,0.3,0.7c0,0.1,0,0.1,0,0.2v10.8 c-1.4,0-2.5,1.1-2.5,2.5c0,0.2,0,0.4,0.1,0.6c0,0.1,0,0.2,0.1,0.3c0.1,0.4,0.2,0.8,0.5,1.1c0,0.1,0,0.1,0,0.2 c0.1,0.4,0.2,0.8,0.5,1.1c0,0.1,0,0.1,0,0.2c0.1,0.4,0.2,0.8,0.5,1.1c0,0.1,0,0.1,0,0.2c0.1,0.4,0.2,0.8,0.5,1.1c0,0.1,0,0.1,0,0.2 c0.1,0.4,0.2,0.8,0.5,1.1c0.1,0.4,0.2,0.7,0.5,1.1c0,0.1,0,0.1,0,0.2c0.1,0.4,0.2,0.8,0.5,1.1c0,0.1,0,0.1,0,0.2 c0.1,0.4,0.2,0.8,0.5,1.1c0,0.1,0,0.1,0,0.2c0.1,0.4,0.2,0.8,0.5,1.1c0,0.1,0,0.1,0,0.2c0.1,0.4,0.2,0.8,0.5,1.1c0,0.1,0,0.1,0,0.2 c0.1,0.4,0.2,0.8,0.5,1.1c0,0.1,0,0.1,0,0.2c0.1,0.4,0.2,0.8,0.5,1.1c0,0.1,0,0.1,0,0.2c0.1,0.4,0.2,0.8,0.5,1.1c0,0.1,0,0.1,0,0.2 c0.1,0.4,0.2,0.8,0.5,1.1c0.1,0.4,0.2,0.7,0.5,1.1c0,0.1,0,0.1,0,0.2c0.1,0.4,0.2,0.8,0.5,1.1c0,0.1,0,0.1,0,0.2 c0.1,0.4,0.2,0.7,0.4,1c2.7,0.7,5.6,1.1,8.5,1.1C58.8,80.5,68.3,75.3,74.2,67.2z"/>
    <path id="XMLID_5_" class="st2" d="M58.2,67.1c0,1.1-0.9,2-2,2H37.8c-1.1,0-2-0.9-2-2V40.2c0-1.1,0.9-2,2-2h18.3c1.1,0,2,0.9,2,2 V67.1z"/>
    <path id="XMLID_8_" class="st2" d="M62.2,58.5h-6.1V43.8h6.1c1.7,0,3,1.5,3,3.2v8.6C65.3,57.3,63.9,58.5,62.2,58.5z M58.2,56.5h4.1 c0.6,0,1-0.3,1-0.9V47c0-0.6-0.5-1.2-1-1.2h-4.1V56.5z"/>
    <rect id="XMLID_9_" x="57.1" y="45.8" class="st3" width="1" height="10.7"/>
    <path id="XMLID_10_" class="st3" d="M65.3,44.3c0-0.3-0.2-0.5-0.5-0.5c-0.3,0-0.5,0.2-0.5,0.5V58c0,0.3,0.2,0.5,0.5,0.5 c0.3,0,0.5-0.2,0.5-0.5V44.3z"/>
    <path id="XMLID_11_" class="st3" d="M58.2,39c0-0.4-0.3-0.8-0.8-0.8c-0.4,0-0.8,0.3-0.8,0.8v29.5c0,0.4,0.3,0.8,0.8,0.8 c0.4,0,0.8-0.3,0.8-0.8V39z"/>
    <path id="XMLID_12_" class="st4" d="M38.9,60.2c-0.6,0-1-0.5-1-1V45.5c0-0.6,0.5-1,1-1c0.6,0,1,0.5,1,1v13.7 C39.9,59.7,39.4,60.2,38.9,60.2z"/>
    <path id="XMLID_13_" class="st4" d="M42.9,60.2c-0.6,0-1-0.5-1-1V45.5c0-0.6,0.5-1,1-1c0.6,0,1,0.5,1,1v13.7 C43.9,59.7,43.5,60.2,42.9,60.2z"/>
    <path id="XMLID_14_" class="st4" d="M55.1,60.2c-0.6,0-1-0.5-1-1V45.5c0-0.6,0.5-1,1-1c0.6,0,1,0.5,1,1v13.7 C56.1,59.7,55.7,60.2,55.1,60.2z"/>
    <path id="XMLID_15_" class="st4" d="M47,60.2c-0.6,0-1-0.5-1-1V45.5c0-0.6,0.5-1,1-1c0.6,0,1,0.5,1,1v13.7 C48,59.7,47.5,60.2,47,60.2z"/>
    <path id="XMLID_16_" class="st4" d="M51,60.2c-0.6,0-1-0.5-1-1V45.5c0-0.6,0.5-1,1-1c0.6,0,1,0.5,1,1v13.7 C52.1,59.7,51.6,60.2,51,60.2z"/>
    <path id="XMLID_17_" class="st5" d="M35.8,39.7h-2.5v14.9c-1.4,0-2.5,1.1-2.5,2.5c0,1.4,1.1,2.5,2.5,2.5c1.4,0,2.5-1.2,2.5-2.6 l0-0.1h0V39.7z"/>
    <path id="XMLID_18_" class="st6" d="M35.8,39.7h-1V57h0l0,0.1c0,1.2-0.9,2.3-2,2.5c0.2,0,0.3,0.1,0.5,0.1c1.4,0,2.5-1.2,2.5-2.6 l0-0.1h0V39.7z"/>
    <path id="XMLID_19_" class="st5" d="M54.2,28.8c-0.1,0-0.1,0-0.2,0c-1.1-2.1-3.3-3.6-5.9-3.6c-2.4,0-4.5,1.3-5.7,3.2 c-0.9-0.4-1.9-0.7-2.9-0.7c-3.2,0-5.9,2.3-6.5,5.3C31.7,34,31,35.4,31,37c0,2.7,2.2,4.9,4.9,4.9c1,0,2-0.3,2.7-0.8 c0.3,0,0.5,0.1,0.8,0.1c0.3,0,0.5,0,0.8,0c1.2,1,2.7,1.6,4.3,1.6c2,0,3.8-0.9,5.1-2.3c1.2,1.1,2.8,1.8,4.6,1.8c3.7,0,6.7-3,6.7-6.7 C60.9,31.8,57.9,28.8,54.2,28.8z"/>
    <path id="XMLID_20_" class="st6" d="M54.2,28.8c-0.1,0-0.1,0-0.2,0c-1.1-2.1-3.3-3.6-5.9-3.6c-0.3,0-0.7,0-1,0.1 c2.1,0.3,3.9,1.7,4.9,3.5c0.1,0,0.1,0,0.2,0c3.7,0,6.7,3,6.7,6.7c0,3.3-2.5,6.1-5.7,6.6c0.3,0.1,0.7,0.1,1,0.1c3.7,0,6.7-3,6.7-6.7 C60.9,31.8,57.9,28.8,54.2,28.8z"/>
    <path id="XMLID_21_" class="st6" d="M40.3,28.5c0.1-0.2,0.2-0.4,0.4-0.5c-0.4-0.1-0.8-0.1-1.3-0.1c-0.4,0-0.7,0-1,0.1 C39.1,28,39.7,28.2,40.3,28.5z"/>
    <path id="XMLID_22_" class="st6" d="M48.5,39.5c-1,1.2-3.3,2.9-5,3.1c0.3,0.1,0.7,0.1,1,0.1c2.1,0,4.1-1,5.1-2.3 C49.2,40.1,48.8,39.8,48.5,39.5z"/>
  </g>
</svg>